<svg width="53" height="91" viewBox="0 0 53 91" fill="none" xmlns="http://www.w3.org/2000/svg">
<g id="Illustration">
<g id="Group 115">
<g id="Group 113">
<path id="Path 197" fill-rule="evenodd" clip-rule="evenodd" d="M30.8837 33.4829C28.7367 32.571 23.2365 30.8821 23.2365 22.8339C23.2365 14.7858 36.5642 -2.34861 44.0059 0.416357C51.4477 3.18132 48.2338 23.9732 44.0059 29.9083C39.7781 35.8435 33.0307 34.3947 30.8837 33.4829Z" fill="#C5DDF0"/>
<path id="Path 193" d="M27.0028 72.2791H26.4568C26.4568 46.023 31.3047 24.6781 41.0062 8.24756L41.4763 8.52517C31.8292 24.8636 27.0028 46.114 27.0028 72.2791Z" fill="#7297C4"/>
</g>
<g id="Group 114">
<path id="Path 198" fill-rule="evenodd" clip-rule="evenodd" d="M20.1858 52.8204C23.72 51.3662 28.7658 45.5578 25.0965 37.2876C21.4271 29.0174 8.45053 18.6601 2.33534 23.9745C-3.77986 29.2889 3.61541 46.726 7.43008 50.8077C11.2447 54.8893 16.6516 54.2746 20.1858 52.8204Z" fill="#C5DDF0"/>
<path id="Path 194" d="M22.7765 72.2803L22.2306 72.2775C22.3139 55.7726 17.8699 42.5816 8.90219 32.6905L9.30669 32.3237C18.3719 42.3224 22.8606 55.6459 22.7765 72.2803Z" fill="#7297C4"/>
</g>
<g id="Group 112">
<path id="Path 196" fill-rule="evenodd" clip-rule="evenodd" d="M34.9931 58.0305C33.0086 56.5391 30.0484 54.5333 32.6441 47.8786C35.2399 41.2238 46.9103 34.6451 50.7932 38.3659C54.6761 42.0868 50.0735 54.8571 45.657 58.3285C41.2405 61.8 36.9776 59.5219 34.9931 58.0305Z" fill="#C5DDF0"/>
<path id="Path 195" d="M31.798 72.3268L31.2605 72.231C33.4501 59.942 38.1919 50.1452 45.4874 42.8484L45.8735 43.2344C38.6613 50.4478 33.969 60.1427 31.798 72.3268Z" fill="#7297C4"/>
</g>
</g>
<g id="Rectangle 50">
<path id="Rectangle" fill-rule="evenodd" clip-rule="evenodd" d="M12.7348 68.9287H42.1029V80.7582C42.1029 85.9276 37.9122 90.1182 32.7429 90.1182H22.0948C16.9254 90.1182 12.7348 85.9276 12.7348 80.7582V68.9287Z" fill="url(#paint0_linear_0_12)"/>
<mask id="mask0_0_12" style="mask-type:luminance" maskUnits="userSpaceOnUse" x="12" y="68" width="31" height="23">
<path id="Rectangle_2" fill-rule="evenodd" clip-rule="evenodd" d="M12.7348 68.9287H42.1029V80.7582C42.1029 85.9276 37.9122 90.1182 32.7429 90.1182H22.0948C16.9254 90.1182 12.7348 85.9276 12.7348 80.7582V68.9287Z" fill="white"/>
</mask>
<g mask="url(#mask0_0_12)">
<g id="Group 119">
<path id="Path 180" d="M11.5407 73.2737V72.7277H42.7807V73.2737H11.5407Z" fill="#7297C4"/>
<path id="Path 180_2" d="M11.5407 76.9182V76.3722H42.7807V76.9182H11.5407Z" fill="#7297C4"/>
</g>
</g>
</g>
</g>
<defs>
<linearGradient id="paint0_linear_0_12" x1="13.4169" y1="53.8451" x2="-13.3802" y2="100.137" gradientUnits="userSpaceOnUse">
<stop stop-color="#CBDDEE"/>
<stop offset="1" stop-color="#B8D0E6"/>
<stop offset="1" stop-color="#B8D0E6"/>
</linearGradient>
</defs>
</svg>
